**ABCDEFGHIJKLMNOPQRSTUVWXYZabcdefghijklmnopqrstuvwxyz**************************
**PARASOLID !"#$%&'()*+,-./:;<=>?@[\]^_`{|}~0123456789**************************
**PART1;
MC=AMD64;
MC_MODEL=Intel64 Family 6 Model 60 Stepping 3, GenuineIntel;
MC_ID=unknown;
OS=Windows_NT;
OS_RELEASE=unknown;
FRU=Parasolid Version 29.0, build 166,  7-11-2016;
APPL=SOLIDWORKS 2017-2016280;
SITE=;
USER=unknown;
FORMAT=text;
GUISE=transmit;
KEY=makeProjectedPlanarWire;
FILE=makeProjectedPlanarWire.x_t;
DATE=Tue May 05 17:37:15 2020;
**PART2;
SCH=SCH_2900166_28101;
USFLD_SIZE=0;
**PART3;
**END_OF_HEADER*****************************************************************
T51 : TRANSMIT FILE created by modeller version 290016623 SCH_2900166_28101_1300
6203 0 12 33 CCCCCCI4 mesh1006 0 I8 polyline1008 0 CCCCCCCDI5 owner1040 0 CCCCCC
I13 boundary_mesh1006 0 I17 boundary_polyline1008 0 CCCA16 index_map_offset0 0 1
 dA9 index_map82 0 A17 node_id_index_map82 0 A20 schema_embedding_map82 0 A5 chi
ld12 0 A14 lowest_node_id0 0 1 dZ1 148 0 0 0 0 0 0 0 0 1e3 1e-8 0 2 0 1 0 3 1 3
 4 5 6 0 0 7 8 9 0 0 0 0 0 0 13 255 3 89 0 1 0 10 0 0 7 10 50 255 4 2 0 10 0 0 0
 +0 0 .1 0 0 1 1 0 0 30 255 5 58 0 8 11 0 0 +.814 2111498930011395e-31 .1 -25939
7902949803e-30 1 0 29 255 6 87 0 9 12 0 .814 .214 .1 19 8 CCCCCCCA5 owner12 0 Z7
 88 0 1 0 0 3 V0 16 255 8 57 0 ?13 0 14 5 0 0 1 18 255 9 85 0 15 0 16 6 ?1 17 25
5 15 0 0 0 0 9 17 18 0 13 -18 16 82 0 19 9 20 12 ?1 17 19 0 21 13 22 16 23 14 0
 24 +18 20 79 0 22 16 25 26 ?1 29 12 84 0 16 26 6 .814 -.214 .1 29 26 81 0 20 27
 12 -.814 -.214 .1 29 27 78 0 25 28 26 -.814 .214 .1 18 25 76 0 17 20 29 27 ?1 2
9 28 75 0 29 30 27 -.8 -.2 .1 18 29 73 0 31 25 32 28 ?1 29 30 72 0 32 33 28 .8 -
.2 .1 18 32 70 0 34 29 35 30 ?1 29 33 69 0 35 36 30 .8 .2 .1 18 35 67 0 37 32 38
 33 ?1 29 36 66 0 38 0 33 -.8 .2 .1 18 38 64 0 39 35 0 36 ?1 17 39 0 40 37 41 38
 31 42 0 43 +15 255 40 6 0 39 10 21 17 37 0 40 34 39 35 43 44 0 45 +17 41 0 40 3
9 34 29 46 47 0 0 +17 31 0 0 0 0 29 39 42 0 41 -16 42 8 0 ?39 44 0 48 0 0 1 17 4
3 0 0 0 0 38 37 44 0 0 -16 44 15 0 ?37 49 42 50 0 0 1 16 49 22 0 ?34 47 44 51 0
 0 1 30 50 16 0 44 48 51 0 +0 .2 .1 1 0 0 30 48 9 0 42 0 50 0 +-.8 0 .1 0 1 0 30
 51 23 0 49 50 52 0 +.8 2220446049250315e-31 .1 277555756156289e-30 -1 0 30 52 3
0 0 47 51 53 0 +0 -.2 .1 -1 0 0 16 47 29 0 ?41 18 49 52 0 0 1 30 53 37 0 18 52 5
4 0 +0 .214 .1 -1 0 0 16 18 36 0 ?17 55 47 53 0 0 1 30 54 44 0 55 53 11 0 +-.814
 0 .1 0 -1 0 16 55 43 0 ?22 14 18 54 0 0 1 30 11 51 0 14 54 5 0 +36484601853468e
-31 -.214 .1 1 1704887937077945e-32 0 16 14 50 0 ?19 8 55 11 0 0 1 17 22 0 21 19
 17 20 56 55 0 23 +15 21 7 0 17 10 0 17 17 0 21 22 13 25 15 18 0 56 +17 56 0 0 0
 0 25 22 55 0 0 -17 23 0 0 0 0 20 19 14 0 0 -17 13 0 21 17 19 9 24 8 0 0 +17 24
 0 0 0 0 16 13 8 0 0 -14 255 10 1 0 ?0 0 40 3 4 +0 0 0 0 3 17 34 0 40 41 37 32 4
5 49 0 46 +17 45 0 0 0 0 35 34 49 0 0 -17 46 0 0 0 0 32 41 47 0 0 -1 0 
